HIERARCHY
ROOT Hips
{
	OFFSET -0.001795 -0.223333 0.028219
	CHANNELS 6 Xposition Yposition Zposition Zrotation Yrotation Xrotation 
	JOINT LeftUpLeg
	{
		OFFSET 0.069520 -0.091406 -0.006815
		CHANNELS 3 Zrotation Yrotation Xrotation
		JOINT LeftLeg
		{
			OFFSET 0.034277 -0.375199 -0.004496
			CHANNELS 3 Zrotation Yrotation Xrotation
			JOINT LeftFoot
			{
				OFFSET -0.013596 -0.397961 -0.043693
				CHANNELS 3 Zrotation Yrotation Xrotation
				JOINT LeftToe
				{
					OFFSET 0.026358 -0.055791 0.119288
					CHANNELS 3 Zrotation Yrotation Xrotation
					End Site
					{
						OFFSET 0.000000 0.000000 0.000000
					}
				}
			}
		}
	}
	JOINT RightUpLeg
	{
		OFFSET -0.067670 -0.090522 -0.004320
		CHANNELS 3 Zrotation Yrotation Xrotation
		JOINT RightLeg
		{
			OFFSET -0.038290 -0.382569 -0.008850
			CHANNELS 3 Zrotation Yrotation Xrotation
			JOINT RightFoot
			{
				OFFSET 0.015774 -0.398415 -0.042312
				CHANNELS 3 Zrotation Yrotation Xrotation
				JOINT RightToe
				{
					OFFSET -0.025372 -0.048144 0.123348
					CHANNELS 3 Zrotation Yrotation Xrotation
					End Site
					{
						OFFSET 0.000000 0.000000 0.000000
					}
				}
			}
		}
	}
	JOINT Spine
	{
		OFFSET -0.002533 0.108963 -0.026696
		CHANNELS 3 Zrotation Yrotation Xrotation
		JOINT Spine1
		{
			OFFSET 0.005487 0.135180 0.001092
			CHANNELS 3 Zrotation Yrotation Xrotation
			JOINT Spine2
			{
				OFFSET 0.001457 0.052922 0.025425
				CHANNELS 3 Zrotation Yrotation Xrotation
				JOINT Neck
				{
					OFFSET -0.002778 0.213870 -0.042857
					CHANNELS 3 Zrotation Yrotation Xrotation
					JOINT Head
					{
						OFFSET 0.005152 0.064970 0.051349
						CHANNELS 3 Zrotation Yrotation Xrotation
						End Site
						{
							OFFSET 0.000000 0.000000 0.000000
						}
					}
				}
				JOINT LeftShoulder
				{
					OFFSET 0.078845 0.121749 -0.034090
					CHANNELS 3 Zrotation Yrotation Xrotation
					JOINT LeftArm
					{
						OFFSET 0.090977 0.030469 -0.008868
						CHANNELS 3 Zrotation Yrotation Xrotation
						JOINT LeftForeArm
						{
							OFFSET 0.259612 -0.012772 -0.027456
							CHANNELS 3 Zrotation Yrotation Xrotation
							JOINT LeftHand
							{
								OFFSET 0.249234 0.008986 -0.001171
								CHANNELS 3 Zrotation Yrotation Xrotation
								End Site
								{
									OFFSET 0.000000 0.000000 0.000000
								}
							}
						}
					}
				}
				JOINT RightShoulder
				{
					OFFSET -0.081759 0.118833 -0.038615
					CHANNELS 3 Zrotation Yrotation Xrotation
					JOINT RightArm
					{
						OFFSET -0.096012 0.032551 -0.009143
						CHANNELS 3 Zrotation Yrotation Xrotation
						JOINT RightForeArm
						{
							OFFSET -0.253742 -0.013329 -0.021401
							CHANNELS 3 Zrotation Yrotation Xrotation
							JOINT RightHand
							{
								OFFSET -0.255298 0.007772 -0.005559
								CHANNELS 3 Zrotation Yrotation Xrotation
								End Site
								{
									OFFSET 0.000000 0.000000 0.000000
								}
							}
						}
					}
				}
			}
		}
	}
}
MOTION
Frames: 10
Frame Time: 0.050000
0.000000 0.954135 0.000000 -2.015597 0.121050 19.308579 4.017793 -1.313625 -20.014495 2.876321 0.059193 -5.876758 -2.719372 0.620650 13.658038 0.000000 0.000000 0.000000 2.029894 2.932635 -26.017499 -1.933378 0.158713 -0.515887 4.853563 4.280114 12.668075 0.000000 0.000000 0.000000 1.352843 -1.430583 23.728917 -0.078298 -0.032611 2.628993 0.596888 2.326387 5.911011 7.562433 -2.319289 -21.297052 0.000000 0.000000 0.000000 -5.330274 -35.123867 14.533250 -22.993396 -37.403656 2.919806 26.070093 -36.549880 -7.021053 0.000000 0.000000 0.000000 4.435406 37.305216 16.167412 23.517629 47.840414 5.495748 -28.135623 38.480852 -7.474758 0.000000 0.000000 0.000000 
0.001658 0.953261 0.003090 -2.721386 -1.235038 19.269330 4.892763 -1.128952 -19.242817 2.159729 0.161416 -7.133974 -2.442667 0.763327 13.417439 0.000000 0.000000 0.000000 2.357972 2.975882 -25.414886 -0.215184 -0.036801 -1.355673 4.650329 3.494585 12.971337 0.000000 0.000000 0.000000 1.285195 -1.375822 24.508929 0.019705 -0.044218 2.046344 1.694309 3.544208 5.290094 9.169207 -3.100370 -21.340660 0.000000 0.000000 0.000000 -6.585948 -32.400247 13.528647 -24.905623 -38.545737 3.624603 22.914228 -38.174405 -6.242572 0.000000 0.000000 0.000000 3.084338 35.996945 15.247942 23.865914 50.145430 6.184600 -24.804174 37.168129 -6.064063 0.000000 0.000000 0.000000 
0.003368 0.952289 0.006555 -2.122355 -0.165136 18.603789 4.845112 -1.148792 -18.743113 1.571782 0.139510 -6.207133 -2.745271 -0.055464 12.197514 0.000000 0.000000 0.000000 1.821537 2.722666 -24.387886 -0.848495 0.017687 -1.358346 4.310658 3.268099 12.449387 0.000000 0.000000 0.000000 2.508404 -1.734902 23.486301 -0.574128 0.206741 2.601941 1.543193 2.813294 4.005961 8.728230 -3.446657 -17.758177 0.000000 0.000000 0.000000 -10.624923 -32.885934 14.752168 -23.800862 -37.142389 3.162131 20.504026 -39.075964 -5.495888 0.000000 0.000000 0.000000 5.515520 37.120617 16.485291 20.168045 48.239699 4.361785 -19.426443 36.063870 -4.304432 0.000000 0.000000 0.000000 
0.005203 0.951134 0.010390 -2.253638 -0.901823 18.123474 4.655577 -1.108640 -17.969322 2.350043 0.154666 -7.151863 -2.555734 -0.029920 11.672040 0.000000 0.000000 0.000000 1.711667 2.628090 -23.470090 -0.437877 -0.059693 -2.308800 5.164390 4.497581 13.131462 0.000000 0.000000 0.000000 2.705855 -1.669907 22.273754 -0.823949 0.321013 3.665119 1.865288 3.888920 3.414223 10.569345 -4.200656 -18.900908 0.000000 0.000000 0.000000 -10.669288 -33.019157 14.602425 -26.927173 -35.257258 3.645321 21.600930 -41.904422 -6.471669 0.000000 0.000000 0.000000 5.867582 37.934483 17.102220 19.680781 48.195030 4.255428 -18.985168 33.777009 -3.882169 0.000000 0.000000 0.000000 
0.006872 0.949919 0.014719 -1.595365 -0.179378 16.995926 3.801696 -1.140081 -16.633759 1.961541 0.155137 -6.879176 -2.082608 0.643857 11.023515 0.000000 0.000000 0.000000 1.049488 2.356093 -22.089631 -1.064342 -0.013906 -2.382952 5.488516 5.572752 12.569707 0.000000 0.000000 0.000000 3.550446 -1.895917 21.979031 -0.521040 0.164643 3.488031 1.167157 3.844732 3.512550 11.405138 -4.965382 -17.293859 0.000000 0.000000 0.000000 -12.973695 -33.109647 15.018762 -26.822839 -32.628284 3.143349 21.478034 -46.539951 -7.298910 0.000000 0.000000 0.000000 7.870346 37.256531 17.478311 19.342661 46.478331 3.833497 -17.300226 33.712359 -3.410095 0.000000 0.000000 0.000000 
0.008468 0.949021 0.018945 -1.644110 -0.041416 16.225721 3.455429 -1.136107 -16.053457 2.090656 0.108395 -6.113512 -1.662194 0.863544 9.649337 0.000000 0.000000 0.000000 0.582866 2.202918 -21.228205 -0.468333 -0.037656 -1.895305 5.983011 6.890214 12.063259 0.000000 0.000000 0.000000 4.158751 -2.007914 21.411149 -0.727578 0.260020 3.700937 1.512675 4.969730 3.519826 12.394268 -5.267360 -18.187949 0.000000 0.000000 0.000000 -12.061231 -32.930522 14.373107 -29.445478 -31.070540 3.383812 20.104826 -52.606261 -7.957751 0.000000 0.000000 0.000000 8.581328 35.825428 17.151676 20.689218 44.457136 4.024728 -16.938546 36.203342 -3.545687 0.000000 0.000000 0.000000 
0.009863 0.948297 0.023056 -1.296436 0.111305 15.188606 2.817311 -1.129396 -15.117005 2.049301 0.082093 -5.594649 -1.481485 0.720203 8.410838 0.000000 0.000000 0.000000 -0.031488 2.018917 -20.192048 -0.320467 -0.039312 -1.662397 5.785647 7.072024 11.115831 0.000000 0.000000 0.000000 4.642187 -2.048826 20.625306 -0.553912 0.183326 3.213663 1.450685 5.319894 4.164402 12.817400 -5.487294 -18.326308 0.000000 0.000000 0.000000 -13.370369 -31.256582 13.567991 -31.236995 -27.713398 2.944356 17.042093 -60.825358 -7.848430 0.000000 0.000000 0.000000 10.898565 33.949414 16.964483 23.607780 42.472628 4.559499 -16.048713 40.786320 -3.693355 0.000000 0.000000 0.000000 
0.011150 0.947878 0.026767 -1.012028 0.409759 14.703067 2.316304 -1.125209 -14.424885 1.634185 0.087470 -5.247848 -0.970239 1.193666 7.178863 0.000000 0.000000 0.000000 -1.054227 1.857116 -19.808155 0.528829 -0.101679 -1.386645 5.752822 7.310807 10.688712 0.000000 0.000000 0.000000 5.117432 -2.018863 18.988384 -0.168684 -0.015928 3.534934 1.684758 5.829117 4.164081 13.699982 -6.089887 -17.796966 0.000000 0.000000 0.000000 -14.048791 -29.887023 12.744786 -32.779801 -24.201038 2.370907 9.151093 -67.847134 -3.971872 0.000000 0.000000 0.000000 12.861619 31.252954 16.231184 26.830151 40.159220 5.012271 -13.580734 47.930038 -3.247825 0.000000 0.000000 0.000000 
0.012049 0.947462 0.030238 -0.690643 0.709325 13.819212 1.486913 -1.123190 -13.572427 2.024194 0.030967 -4.580351 -0.867409 0.981058 6.111572 0.000000 0.000000 0.000000 -1.476413 1.728590 -19.014585 0.445685 -0.077642 -0.911107 5.899127 8.086466 9.978663 0.000000 0.000000 0.000000 5.502603 -1.973609 17.703459 0.422779 -0.313231 3.607641 1.832429 6.001270 4.288277 13.706766 -6.180939 -17.447182 0.000000 0.000000 0.000000 -14.508410 -28.299804 11.831373 -33.545632 -21.381308 1.785016 -2.048725 -72.124331 3.617046 0.000000 0.000000 0.000000 14.099235 28.853582 15.280744 31.260477 37.554577 5.605467 -11.386992 54.656773 -2.539784 0.000000 0.000000 0.000000 
0.012615 0.947116 0.033218 -0.259766 0.712228 13.286441 0.868380 -1.098679 -12.760019 2.259598 0.003860 -4.357839 -0.522355 1.525635 5.830560 0.000000 0.000000 0.000000 -2.124735 1.600867 -18.353170 0.553815 -0.087892 -0.912462 6.263605 8.820961 10.030136 0.000000 0.000000 0.000000 5.397723 -1.796487 16.237578 1.307937 -0.755804 3.712750 2.128127 6.224327 4.662817 13.834914 -6.133526 -18.017420 0.000000 0.000000 0.000000 -13.491929 -27.130781 10.991154 -34.002588 -19.271788 1.266898 -15.320192 -74.198050 13.621729 0.000000 0.000000 0.000000 15.371598 27.485170 14.897048 33.449220 35.557111 5.565052 -7.558053 58.691283 -0.572404 0.000000 0.000000 0.000000 
